<?xml version="1.0" encoding="UTF-8" standalone="no"?>
<!-- Generator: Adobe Illustrator 19.0.0, SVG Export Plug-In . SVG Version: 6.00 Build 0)  -->

<svg
   xmlns:dc="http://purl.org/dc/elements/1.1/"
   xmlns:cc="http://creativecommons.org/ns#"
   xmlns:rdf="http://www.w3.org/1999/02/22-rdf-syntax-ns#"
   xmlns:svg="http://www.w3.org/2000/svg"
   xmlns="http://www.w3.org/2000/svg"
   xmlns:sodipodi="http://sodipodi.sourceforge.net/DTD/sodipodi-0.dtd"
   xmlns:inkscape="http://www.inkscape.org/namespaces/inkscape"
   version="1.1"
   id="Capa_1"
   x="0px"
   y="0px"
   viewBox="0 0 480 480"
   style="enable-background:new 0 0 480 480;"
   xml:space="preserve"
   sodipodi:docname="codigo-de-descuento.svg"
   inkscape:version="0.92.2 (5c3e80d, 2017-08-06)"><metadata
     id="metadata3550"><rdf:RDF><cc:Work
         rdf:about=""><dc:format>image/svg+xml</dc:format><dc:type
           rdf:resource="http://purl.org/dc/dcmitype/StillImage" /></cc:Work></rdf:RDF></metadata><defs
     id="defs3548" /><sodipodi:namedview
     pagecolor="#ffffff"
     bordercolor="#666666"
     borderopacity="1"
     objecttolerance="10"
     gridtolerance="10"
     guidetolerance="10"
     inkscape:pageopacity="0"
     inkscape:pageshadow="2"
     inkscape:window-width="1366"
     inkscape:window-height="705"
     id="namedview3546"
     showgrid="false"
     inkscape:zoom="0.98333333"
     inkscape:cx="252.28718"
     inkscape:cy="287.65118"
     inkscape:window-x="-8"
     inkscape:window-y="-8"
     inkscape:window-maximized="1"
     inkscape:current-layer="Capa_1" /><g
     id="g3429"><g
       id="g3427"><rect
         x="144"
         y="264"
         width="16"
         height="16"
         id="rect3425"
         style="fill:#ffffff" /></g></g><g
     id="g3435"><g
       id="g3433"><rect
         x="144"
         y="296"
         width="16"
         height="16"
         id="rect3431"
         style="fill:#ffffff" /></g></g><g
     id="g3441"><g
       id="g3439"><rect
         x="144"
         y="328"
         width="16"
         height="16"
         id="rect3437"
         style="fill:#ffffff" /></g></g><g
     id="g3447"><g
       id="g3445"><rect
         x="144"
         y="232"
         width="16"
         height="16"
         id="rect3443"
         style="fill:#ffffff" /></g></g><g
     id="g3453"><g
       id="g3451"><rect
         x="144"
         y="200"
         width="16"
         height="16"
         id="rect3449"
         style="fill:#ffffff" /></g></g><g
     id="g3459"><g
       id="g3457"><rect
         x="144"
         y="168"
         width="16"
         height="16"
         id="rect3455"
         style="fill:#ffffff" /></g></g><g
     id="g3465"><g
       id="g3463"><rect
         x="144"
         y="136"
         width="16"
         height="16"
         id="rect3461"
         style="fill:#ffffff" /></g></g><g
     id="g3471"><g
       id="g3469"><rect
         x="32"
         y="136"
         width="16"
         height="16"
         id="rect3467"
         style="fill:#ffffff" /></g></g><g
     id="g3477"><g
       id="g3475"><rect
         x="432"
         y="136"
         width="16"
         height="16"
         id="rect3473"
         style="fill:#ffffff" /></g></g><g
     id="g3483"><g
       id="g3481"><rect
         x="432"
         y="328"
         width="16"
         height="16"
         id="rect3479"
         style="fill:#ffffff" /></g></g><g
     id="g3489"><g
       id="g3487"><rect
         x="32"
         y="328"
         width="16"
         height="16"
         id="rect3485"
         style="fill:#ffffff" /></g></g><g
     id="g3495"><g
       id="g3493"><path
         d="M472,200c4.418,0,8-3.582,8-8v-80c0-4.418-3.582-8-8-8H8c-4.418,0-8,3.582-8,8v80c0,4.418,3.582,8,8,8    c22.091,0,40,17.909,40,40s-17.909,40-40,40c-4.418,0-8,3.582-8,8v80c0,4.418,3.582,8,8,8h464c4.418,0,8-3.582,8-8v-80    c0-4.418-3.582-8-8-8c-22.091,0-40-17.909-40-40S449.909,200,472,200z M416.524,247.956c3.532,24.61,22.867,43.944,47.476,47.476    V360H16v-64.568c30.614-4.394,51.87-32.773,47.476-63.388C59.944,207.435,40.61,188.1,16,184.568V120h448v64.568    C433.386,188.962,412.13,217.341,416.524,247.956z"
         id="path3491"
         style="fill:#ffffff" /></g></g><g
     id="g3501"><g
       id="g3499"><path
         d="M240,160c-17.673,0-32,14.327-32,32s14.327,32,32,32c17.673,0,32-14.327,32-32S257.673,160,240,160z M240,208    c-8.837,0-16-7.163-16-16s7.163-16,16-16s16,7.163,16,16S248.837,208,240,208z"
         id="path3497"
         style="fill:#ffffff" /></g></g><g
     id="g3507"><g
       id="g3505"><path
         d="M336,256c-17.673,0-32,14.327-32,32c0,17.673,14.327,32,32,32c17.673,0,32-14.327,32-32C368,270.327,353.673,256,336,256z     M336,304c-8.837,0-16-7.163-16-16s7.163-16,16-16s16,7.163,16,16S344.837,304,336,304z"
         id="path3503"
         style="fill:#ffffff" /></g></g><g
     id="g3513"><g
       id="g3511"><rect
         x="197.494"
         y="231.982"
         transform="matrix(0.7071 -0.7071 0.7071 0.7071 -85.3385 273.9377)"
         width="181.017"
         height="16"
         id="rect3509"
         style="fill:#ffffff" /></g></g><g
     id="g3515" /><g
     id="g3517" /><g
     id="g3519" /><g
     id="g3521" /><g
     id="g3523" /><g
     id="g3525" /><g
     id="g3527" /><g
     id="g3529" /><g
     id="g3531" /><g
     id="g3533" /><g
     id="g3535" /><g
     id="g3537" /><g
     id="g3539" /><g
     id="g3541" /><g
     id="g3543" /></svg>