<?xml version="1.0" encoding="UTF-8" standalone="no"?>
<!-- Generator: Adobe Illustrator 16.0.0, SVG Export Plug-In . SVG Version: 6.00 Build 0)  -->

<svg
   xmlns:dc="http://purl.org/dc/elements/1.1/"
   xmlns:cc="http://creativecommons.org/ns#"
   xmlns:rdf="http://www.w3.org/1999/02/22-rdf-syntax-ns#"
   xmlns:svg="http://www.w3.org/2000/svg"
   xmlns="http://www.w3.org/2000/svg"
   xmlns:sodipodi="http://sodipodi.sourceforge.net/DTD/sodipodi-0.dtd"
   xmlns:inkscape="http://www.inkscape.org/namespaces/inkscape"
   version="1.1"
   id="Capa_1"
   x="0px"
   y="0px"
   width="548.176px"
   height="548.176px"
   viewBox="0 0 548.176 548.176"
   style="enable-background:new 0 0 548.176 548.176;"
   xml:space="preserve"
   sodipodi:docname="pedidos.svg"
   inkscape:version="0.92.2 (5c3e80d, 2017-08-06)"><metadata
     id="metadata4756"><rdf:RDF><cc:Work
         rdf:about=""><dc:format>image/svg+xml</dc:format><dc:type
           rdf:resource="http://purl.org/dc/dcmitype/StillImage" /></cc:Work></rdf:RDF></metadata><defs
     id="defs4754" /><sodipodi:namedview
     pagecolor="#ffffff"
     bordercolor="#666666"
     borderopacity="1"
     objecttolerance="10"
     gridtolerance="10"
     guidetolerance="10"
     inkscape:pageopacity="0"
     inkscape:pageshadow="2"
     inkscape:window-width="1366"
     inkscape:window-height="705"
     id="namedview4752"
     showgrid="false"
     inkscape:zoom="0.86103729"
     inkscape:cx="335.81161"
     inkscape:cy="287.82442"
     inkscape:window-x="-8"
     inkscape:window-y="-8"
     inkscape:window-maximized="1"
     inkscape:current-layer="Capa_1" /><g
     id="g4719"
     transform="matrix(0.95868323,0,0,0.76164883,9.2911191,117.59174)"><g
       id="g4717"><path
         d="M 534.754,68.238 C 525.809,59.293 515.056,54.821 502.496,54.821 H 45.681 c -12.562,0 -23.313,4.471 -32.264,13.417 C 4.471,77.185 0,87.936 0,100.499 v 347.173 c 0,12.566 4.471,23.318 13.417,32.264 8.951,8.946 19.702,13.419 32.264,13.419 h 456.815 c 12.56,0 23.312,-4.473 32.258,-13.419 8.945,-8.945 13.422,-19.697 13.422,-32.264 V 100.499 c 0,-12.563 -4.477,-23.314 -13.422,-32.261 z m -23.127,379.441 c 0,2.478 -0.903,4.613 -2.711,6.427 -1.807,1.8 -3.949,2.703 -6.42,2.703 H 45.681 c -2.473,0 -4.615,-0.903 -6.423,-2.71 -1.807,-1.813 -2.712,-3.949 -2.712,-6.427 V 274.088 h 475.082 v 173.591 z m 0,-283.23 H 36.545 v -63.954 c 0,-2.474 0.902,-4.611 2.712,-6.423 1.809,-1.803 3.951,-2.708 6.423,-2.708 h 456.815 c 2.471,0 4.613,0.901 6.42,2.708 1.808,1.812 2.711,3.949 2.711,6.423 v 63.954 z"
         id="path4711"
         inkscape:connector-curvature="0"
         style="fill:#ffffff" /><rect
         x="73.092003"
         y="383.71899"
         width="73.088997"
         height="36.548"
         id="rect4713"
         style="fill:#ffffff" /><rect
         x="182.728"
         y="383.71899"
         width="109.634"
         height="36.548"
         id="rect4715"
         style="fill:#ffffff" /></g></g><g
     id="g4721" /><g
     id="g4723" /><g
     id="g4725" /><g
     id="g4727" /><g
     id="g4729" /><g
     id="g4731" /><g
     id="g4733" /><g
     id="g4735" /><g
     id="g4737" /><g
     id="g4739" /><g
     id="g4741" /><g
     id="g4743" /><g
     id="g4745" /><g
     id="g4747" /><g
     id="g4749" /></svg>