<?xml version="1.0" encoding="UTF-8" standalone="no"?>
<!-- Generator: Adobe Illustrator 19.0.0, SVG Export Plug-In . SVG Version: 6.00 Build 0)  -->

<svg
   xmlns:dc="http://purl.org/dc/elements/1.1/"
   xmlns:cc="http://creativecommons.org/ns#"
   xmlns:rdf="http://www.w3.org/1999/02/22-rdf-syntax-ns#"
   xmlns:svg="http://www.w3.org/2000/svg"
   xmlns="http://www.w3.org/2000/svg"
   xmlns:sodipodi="http://sodipodi.sourceforge.net/DTD/sodipodi-0.dtd"
   xmlns:inkscape="http://www.inkscape.org/namespaces/inkscape"
   version="1.1"
   id="Capa_1"
   x="0px"
   y="0px"
   viewBox="0 0 511.978 511.978"
   style="enable-background:new 0 0 511.978 511.978;"
   xml:space="preserve"
   sodipodi:docname="productos.svg"
   inkscape:version="0.92.2 (5c3e80d, 2017-08-06)"><metadata
     id="metadata5457"><rdf:RDF><cc:Work
         rdf:about=""><dc:format>image/svg+xml</dc:format><dc:type
           rdf:resource="http://purl.org/dc/dcmitype/StillImage" /></cc:Work></rdf:RDF></metadata><defs
     id="defs5455" /><sodipodi:namedview
     pagecolor="#ffffff"
     bordercolor="#666666"
     borderopacity="1"
     objecttolerance="10"
     gridtolerance="10"
     guidetolerance="10"
     inkscape:pageopacity="0"
     inkscape:pageshadow="2"
     inkscape:window-width="1366"
     inkscape:window-height="705"
     id="namedview5453"
     showgrid="false"
     inkscape:zoom="0.92191462"
     inkscape:cx="410.74653"
     inkscape:cy="296.03161"
     inkscape:window-x="-8"
     inkscape:window-y="-8"
     inkscape:window-maximized="1"
     inkscape:current-layer="Capa_1" /><g
     id="g5420"
     transform="matrix(1.0289785,0,0,1,-3.079375,0)"
     style="fill:#ffffff"><g
       id="g5418"
       style="fill:#ffffff"><g
         id="g5416"
         style="fill:#ffffff"><path
           d="m 189.884,215.241 c 1.801,3.103 5.717,4.251 8.908,2.612 v 33.467 c -0.001,2.407 1.284,4.632 3.368,5.836 l 58.921,34.013 c 2.085,1.204 4.653,1.203 6.737,0 2.084,-1.204 3.368,-3.428 3.368,-5.835 v -22.132 c 2.024,1.05 4.442,1 6.421,-0.132 l 14.73,-8.388 c 1.561,-0.889 2.703,-2.364 3.171,-4.099 0.468,-1.734 0.224,-3.584 -0.678,-5.138 l -54.118,-93.198 c -1.859,-3.204 -5.956,-4.306 -9.171,-2.467 l -53.901,30.829 c -1.558,0.89 -2.697,2.365 -3.164,4.098 -0.467,1.733 -0.223,3.58 0.677,5.133 z m 42.533,-50.441 47.349,81.533 -3.02,1.717 -6.467,-11.151 c -1.529,-2.635 -4.637,-3.917 -7.579,-3.125 -2.942,0.792 -4.987,3.46 -4.987,6.507 v 33.388 l -45.447,-26.237 v -41.165 c -0.001,-2.4 -1.277,-4.618 -3.352,-5.824 -2.075,-1.206 -4.634,-1.218 -6.72,-0.031 l -4.007,2.283 -7.974,-13.757 z"
           id="path5392"
           inkscape:connector-curvature="0"
           style="fill:#ffffff" /><path
           d="m 162.884,290.794 49.099,28.349 c 3.223,1.858 7.341,0.753 9.201,-2.469 1.86,-3.222 0.757,-7.341 -2.464,-9.202 l -49.099,-28.349 c -2.085,-1.205 -4.654,-1.206 -6.74,-0.002 -2.086,1.204 -3.37,3.429 -3.369,5.837 0,2.408 1.286,4.633 3.372,5.836 z"
           id="path5394"
           inkscape:connector-curvature="0"
           style="fill:#ffffff" /><path
           d="m 272.736,350.328 c 2.086,-1.204 3.37,-3.429 3.369,-5.837 -0.001,-2.408 -1.286,-4.633 -3.372,-5.836 l -34.375,-19.849 c -2.085,-1.205 -4.654,-1.206 -6.74,-0.002 -2.086,1.204 -3.37,3.429 -3.369,5.837 0.001,2.408 1.286,4.633 3.372,5.836 l 34.375,19.849 c 2.085,1.205 4.654,1.206 6.74,0.002 z"
           id="path5396"
           inkscape:connector-curvature="0"
           style="fill:#ffffff" /><path
           d="m 287.257,349.316 c -1.727,0.463 -3.198,1.593 -4.09,3.142 -0.894,1.548 -1.136,3.387 -0.673,5.113 0.463,1.726 1.592,3.198 3.141,4.091 l 14.73,8.507 c 2.085,1.205 4.654,1.206 6.74,0.002 2.086,-1.204 3.37,-3.429 3.369,-5.837 -10e-4,-2.408 -1.286,-4.633 -3.372,-5.836 l -14.73,-8.507 c -1.549,-0.895 -3.388,-1.138 -5.115,-0.675 z"
           id="path5398"
           inkscape:connector-curvature="0"
           style="fill:#ffffff" /><path
           d="m 307.101,392.287 -34.368,-19.842 c -2.085,-1.205 -4.654,-1.206 -6.74,-0.002 -2.086,1.204 -3.37,3.429 -3.369,5.837 10e-4,2.408 1.286,4.633 3.372,5.835 l 34.368,19.842 c 2.085,1.205 4.654,1.206 6.74,0.002 2.086,-1.204 3.37,-3.429 3.369,-5.837 0,-2.408 -1.286,-4.632 -3.372,-5.835 z"
           id="path5400"
           inkscape:connector-curvature="0"
           style="fill:#ffffff" /><path
           d="m 213.811,338.425 c -1.547,-0.895 -3.387,-1.139 -5.114,-0.676 -1.727,0.463 -3.198,1.594 -4.09,3.143 -0.894,1.548 -1.136,3.387 -0.673,5.113 0.463,1.726 1.592,3.198 3.14,4.091 l 39.276,22.678 c 3.223,1.858 7.341,0.753 9.201,-2.469 1.86,-3.222 0.757,-7.341 -2.464,-9.202 z"
           id="path5402"
           inkscape:connector-curvature="0"
           style="fill:#ffffff" /><path
           d="m 162.884,324.583 v 0 l 24.546,14.178 c 3.223,1.858 7.341,0.753 9.201,-2.469 1.86,-3.222 0.757,-7.341 -2.464,-9.202 l -24.546,-14.178 c -2.085,-1.205 -4.654,-1.206 -6.74,-0.002 -2.086,1.204 -3.37,3.429 -3.369,5.837 0,2.409 1.286,4.633 3.372,5.836 z"
           id="path5404"
           inkscape:connector-curvature="0"
           style="fill:#ffffff" /><path
           d="m 203.989,366.55 -34.368,-19.842 c -2.085,-1.205 -4.654,-1.206 -6.74,-0.002 -2.086,1.204 -3.37,3.429 -3.369,5.837 0.001,2.408 1.286,4.633 3.372,5.836 v 0 l 34.368,19.842 c 2.085,1.205 4.654,1.206 6.74,0.002 2.086,-1.204 3.37,-3.429 3.369,-5.837 0,-2.408 -1.286,-4.633 -3.372,-5.836 z"
           id="path5406"
           inkscape:connector-curvature="0"
           style="fill:#ffffff" /><path
           d="m 267.818,403.399 -44.191,-25.513 c -2.085,-1.205 -4.654,-1.206 -6.74,-0.002 -2.086,1.204 -3.37,3.429 -3.369,5.837 0.001,2.408 1.286,4.633 3.372,5.835 l 44.191,25.513 c 3.223,1.858 7.341,0.753 9.201,-2.469 1.86,-3.221 0.757,-7.34 -2.464,-9.201 z"
           id="path5408"
           inkscape:connector-curvature="0"
           style="fill:#ffffff" /><path
           d="M 307.101,426.076 287.463,414.74 c -2.085,-1.205 -4.654,-1.206 -6.74,-0.002 -2.086,1.204 -3.37,3.429 -3.369,5.837 0.001,2.408 1.286,4.633 3.372,5.835 l 19.638,11.336 c 2.085,1.205 4.654,1.206 6.74,0.002 2.086,-1.204 3.37,-3.429 3.369,-5.837 0,-2.407 -1.286,-4.632 -3.372,-5.835 z"
           id="path5410"
           inkscape:connector-curvature="0"
           style="fill:#ffffff" /><path
           d="m 405.639,140.046 c -0.016,-0.178 -0.04,-0.345 -0.07,-0.523 -0.261,-1.625 -1.116,-3.096 -2.398,-4.127 -0.109,-0.088 -0.212,-0.169 -0.326,-0.249 -0.173,-0.123 -0.316,-0.279 -0.502,-0.386 L 205.943,21.399 205.927,21.394 182.14,7.662 C 164.38,-2.556 142.524,-2.554 124.765,7.669 l -2.474,1.428 c -9.56,5.463 -15.598,15.498 -15.946,26.504 -0.007,0.13 -0.074,0.239 -0.074,0.371 v 0.787 l -0.007,0.102 0.007,0.101 v 325.622 c 0.019,12.033 6.437,23.147 16.849,29.178 l 10.316,5.954 0.114,0.047 196.275,113.315 0.025,0.01 c 0.375,0.198 0.768,0.36 1.174,0.484 0.153,0.053 0.294,0.141 0.45,0.183 0.381,0.084 0.769,0.134 1.159,0.151 0.189,0.016 0.372,0.073 0.561,0.073 h 0.003 0.003 c 1.18,0.001 2.34,-0.31 3.362,-0.901 l 65.776,-37.98 c 0.212,-0.164 0.413,-0.341 0.602,-0.531 0.393,-0.276 0.754,-0.595 1.077,-0.95 0.873,-0.971 1.407,-2.199 1.523,-3.499 0.077,-0.281 0.135,-0.567 0.173,-0.856 V 140.596 c 0,-0.189 -0.058,-0.365 -0.074,-0.55 z m -275.584,240.158 -0.197,-0.114 c -6.248,-3.618 -10.099,-10.287 -10.112,-17.507 V 62.914 c 0.831,0.588 1.655,1.185 2.553,1.702 l 7.757,4.478 v 311.11 z m -1.02,-327.259 c -5.764,-3.28 -9.314,-9.41 -9.29,-16.042 v -0.101 c -0.024,-6.628 3.523,-12.755 9.283,-16.035 l 2.474,-1.428 c 13.588,-7.822 30.311,-7.825 43.901,-0.007 l 13.691,7.901 -52.283,30.204 z m 14.494,335.02 V 76.879 L 326.457,182.485 V 493.57 Z m 189.663,-217.149 -182.911,-105.6 10.022,-5.789 56.055,32.347 c 2.085,1.205 4.654,1.206 6.74,0.002 2.086,-1.204 3.37,-3.429 3.369,-5.837 -0.001,-2.408 -1.286,-4.633 -3.372,-5.835 l -49.317,-28.458 5.653,-3.265 98.835,57.072 c 2.085,1.205 4.654,1.206 6.74,0.002 2.086,-1.204 3.37,-3.429 3.369,-5.837 -10e-4,-2.408 -1.286,-4.633 -3.372,-5.835 l -92.101,-53.182 9.67,-5.586 182.943,105.591 z m 59.047,292.55 -9.684,5.591 v -64.098 c 0,-3.721 -3.016,-6.737 -6.737,-6.737 -3.721,0 -6.737,3.016 -6.737,6.737 v 71.879 l -5.862,3.385 v -48.112 c 0,-3.721 -3.016,-6.737 -6.737,-6.737 -3.721,0 -6.737,3.016 -6.737,6.737 v 55.892 l -9.816,5.668 V 182.487 l 9.816,-5.668 v 49.586 c 0,3.721 3.016,6.737 6.737,6.737 3.721,0 6.737,-3.016 6.737,-6.737 v -57.367 l 5.928,-3.423 v 33.703 c 0,3.721 3.016,6.737 6.737,6.737 3.721,0 6.737,-3.016 6.737,-6.737 v -41.483 l 9.618,-5.554 v 311.085 z"
           id="path5412"
           inkscape:connector-curvature="0"
           style="fill:#ffffff" /><path
           d="m 365.818,276.188 c -1.787,-10e-4 -3.501,0.708 -4.765,1.972 -1.264,1.264 -1.973,2.978 -1.972,4.765 v 67.368 c 0,3.721 3.016,6.737 6.737,6.737 3.721,0 6.737,-3.016 6.737,-6.737 v -67.368 c 10e-4,-1.787 -0.708,-3.501 -1.972,-4.765 -1.264,-1.264 -2.978,-1.973 -4.765,-1.972 z"
           id="path5414"
           inkscape:connector-curvature="0"
           style="fill:#ffffff" /></g></g></g><g
     id="g5422" /><g
     id="g5424" /><g
     id="g5426" /><g
     id="g5428" /><g
     id="g5430" /><g
     id="g5432" /><g
     id="g5434" /><g
     id="g5436" /><g
     id="g5438" /><g
     id="g5440" /><g
     id="g5442" /><g
     id="g5444" /><g
     id="g5446" /><g
     id="g5448" /><g
     id="g5450" /></svg>