<?xml version="1.0" encoding="UTF-8" standalone="no"?>
<!-- Generator: Adobe Illustrator 18.1.1, SVG Export Plug-In . SVG Version: 6.00 Build 0)  -->

<svg
   xmlns:dc="http://purl.org/dc/elements/1.1/"
   xmlns:cc="http://creativecommons.org/ns#"
   xmlns:rdf="http://www.w3.org/1999/02/22-rdf-syntax-ns#"
   xmlns:svg="http://www.w3.org/2000/svg"
   xmlns="http://www.w3.org/2000/svg"
   xmlns:sodipodi="http://sodipodi.sourceforge.net/DTD/sodipodi-0.dtd"
   xmlns:inkscape="http://www.inkscape.org/namespaces/inkscape"
   version="1.1"
   id="Capa_1"
   x="0px"
   y="0px"
   viewBox="0 0 24.334 24.334"
   style="enable-background:new 0 0 24.334 24.334;"
   xml:space="preserve"
   sodipodi:docname="secciones.svg"
   inkscape:version="0.92.2 (5c3e80d, 2017-08-06)"><metadata
     id="metadata6187"><rdf:RDF><cc:Work
         rdf:about=""><dc:format>image/svg+xml</dc:format><dc:type
           rdf:resource="http://purl.org/dc/dcmitype/StillImage" /></cc:Work></rdf:RDF></metadata><defs
     id="defs6185" /><sodipodi:namedview
     pagecolor="#ffffff"
     bordercolor="#666666"
     borderopacity="1"
     objecttolerance="10"
     gridtolerance="10"
     guidetolerance="10"
     inkscape:pageopacity="0"
     inkscape:pageshadow="2"
     inkscape:window-width="1366"
     inkscape:window-height="705"
     id="namedview6183"
     showgrid="false"
     inkscape:zoom="13.759146"
     inkscape:cx="14.301564"
     inkscape:cy="9.5926378"
     inkscape:window-x="-8"
     inkscape:window-y="-8"
     inkscape:window-maximized="1"
     inkscape:current-layer="Capa_1" /><g
     id="g6150"
     style="fill:#ffffff"><g
       id="g6148"
       style="fill:#ffffff"><path
         style="fill:#ffffff"
         d="M10.295,0H0.936C0.419,0,0,0.419,0,0.936v9.359c0,0.517,0.419,0.936,0.936,0.936h9.359    c0.517,0,0.936-0.419,0.936-0.936V0.936C11.231,0.419,10.812,0,10.295,0z"
         id="path6138" /><path
         style="fill:#ffffff"
         d="M23.398,0h-9.359c-0.517,0-0.936,0.419-0.936,0.936v9.359c0,0.517,0.419,0.936,0.936,0.936h9.359    c0.517,0,0.936-0.419,0.936-0.936V0.936C24.334,0.419,23.915,0,23.398,0z M22.462,9.359h-7.487V1.872h7.487V9.359z"
         id="path6140" /><path
         style="fill:#ffffff"
         d="M10.295,13.103H0.936C0.419,13.103,0,13.522,0,14.039v9.359c0,0.517,0.419,0.936,0.936,0.936h9.359    c0.517,0,0.936-0.419,0.936-0.936v-9.359C11.231,13.521,10.812,13.103,10.295,13.103z M4.42,22.462    c0.161-0.276,0.26-0.593,0.26-0.936c0-1.034-0.838-1.872-1.872-1.872c-0.343,0-0.66,0.099-0.936,0.26v-2.391    c0.276,0.161,0.593,0.26,0.936,0.26c1.034,0,1.872-0.838,1.872-1.872c0-0.343-0.099-0.66-0.26-0.936h2.391    c-0.161,0.276-0.26,0.593-0.26,0.936c0,1.034,0.838,1.872,1.872,1.872c0.343,0,0.66-0.099,0.936-0.26v2.391    c-0.276-0.161-0.593-0.26-0.936-0.26c-1.034,0-1.872,0.838-1.872,1.872c0,0.343,0.099,0.66,0.26,0.936H4.42z"
         id="path6142" /><path
         style="fill:#ffffff"
         d="M23.398,13.103h-9.359c-0.517,0-0.936,0.419-0.936,0.936v4.679v4.679    c0,0.517,0.419,0.936,0.936,0.936h4.679h4.679c0.517,0,0.936-0.419,0.936-0.936v-9.359C24.334,13.521,23.915,13.103,23.398,13.103    z M14.975,19.106l4.131-4.131h2.033l-6.164,6.164C14.975,21.139,14.975,19.106,14.975,19.106z M14.975,14.975h1.484l-1.484,1.484    V14.975z M22.462,16.298v2.032l-4.131,4.132h-2.033L22.462,16.298z M22.462,22.462h-1.485l1.485-1.485V22.462z"
         id="path6144" /><circle
         style="fill:#ffffff"
         cx="5.616"
         cy="18.718"
         r="1.872"
         id="circle6146" /></g></g><g
     id="g6152" /><g
     id="g6154" /><g
     id="g6156" /><g
     id="g6158" /><g
     id="g6160" /><g
     id="g6162" /><g
     id="g6164" /><g
     id="g6166" /><g
     id="g6168" /><g
     id="g6170" /><g
     id="g6172" /><g
     id="g6174" /><g
     id="g6176" /><g
     id="g6178" /><g
     id="g6180" /></svg>