<?xml version="1.0" encoding="utf-8"?>
<!-- Generator: Adobe Illustrator 16.0.3, SVG Export Plug-In . SVG Version: 6.00 Build 0)  -->
<!DOCTYPE svg PUBLIC "-//W3C//DTD SVG 1.1//EN" "http://www.w3.org/Graphics/SVG/1.1/DTD/svg11.dtd">
<svg version="1.1" id="Capa_1" xmlns="http://www.w3.org/2000/svg" xmlns:xlink="http://www.w3.org/1999/xlink" x="0px" y="0px"
	 width="976.563px" height="204px" viewBox="0 0 976.563 204" enable-background="new 0 0 976.563 204" xml:space="preserve">
<g>
	<g>
		<path d="M836.754,70.354c-19.419-41.498-76.956-36.416-111.958-16.518c-1.438,4.076-0.719,37.398-0.719,37.398
			s15.822-8.63,29.728-10.787c13.905-2.158,27.09,5.993,28.528,19.658c-64.011-17.74-74.798,41.475-54.181,56.1
			c13.905,15.582,54.181,0,54.181,0v6.926h58.018C840.351,163.131,845.864,94.592,836.754,70.354z M763.394,141.958
			c-2.33,2.843-5.867,4.657-9.829,4.657c-7.018,0-12.706-5.689-12.706-12.707c0-7.017,5.688-12.705,12.706-12.705
			c3.962,0,7.499,1.814,9.829,4.656V141.958z"/>
		<polygon points="627.602,42.113 573.102,42.113 623.449,164.014 667.102,164.014 717.884,40.584 659.92,40.584 646.102,73.113 		
			"/>
		<path d="M199.854,41.738c-12.75,4.011-19.43,10.475-22.461,14.322V37.986h-60.121v126.027h60.121V79.877
			c0,0,13.575-11.857,22.461,2.361l0.079,81.07h54.297v-93.99C254.23,69.318,248.555,32.988,199.854,41.738z"/>
		<path d="M359.354,41.738c-12.75,4.011-19.43,10.475-22.461,14.322V37.986h-60.121v126.027h60.121V79.877
			c0,0,13.575-11.857,22.461,2.361l0.079,81.07h54.297v-93.99C413.73,69.318,408.055,32.988,359.354,41.738z"/>
		<circle fill="#F58634" cx="470.686" cy="143.649" r="22.364"/>
		<circle fill="#00A85A" cx="517.777" cy="143.649" r="22.364"/>
		<circle fill="#EE2F5A" cx="470.686" cy="60.592" r="22.364"/>
		<circle fill="#FFF112" cx="517.777" cy="60.592" r="22.364"/>
		<circle fill="#00AFF0" cx="541.137" cy="103.233" r="22.364"/>
		<g>
			<circle fill="#A43792" cx="448.322" cy="101.316" r="4.263"/>
			<g>
				<g>
					<path fill-rule="evenodd" clip-rule="evenodd" fill="#A43792" d="M437.986,113.339c-0.831,0.529-1.649,1.067-2.487,1.575
						c-0.619,0.375-0.437,0.418-0.963-0.127c-0.926-0.958-1.753-1.995-2.478-3.115c-0.161-0.248-0.178-0.432,0.027-0.66
						c0.663-0.737,1.305-1.494,1.968-2.23c0.137-0.15,0.162-0.264,0.077-0.445c-0.224-0.476-0.42-0.966-0.649-1.439
						c-0.037-0.078-0.188-0.148-0.284-0.144c-1.012,0.048-2.022,0.108-3.033,0.174c-0.215,0.015-0.299-0.05-0.364-0.273
						c-0.419-1.435-0.657-2.897-0.725-4.389c-0.01-0.214,0.064-0.305,0.247-0.37c0.973-0.345,1.94-0.703,2.917-1.036
						c0.18-0.062,0.25-0.125,0.264-0.318c0.037-0.515,0.101-1.028,0.16-1.541c0.018-0.151-0.002-0.241-0.166-0.317
						c-0.944-0.442-1.879-0.905-2.821-1.354c-0.152-0.072-0.19-0.157-0.15-0.322c0.352-1.46,0.835-2.872,1.507-4.219
						c0.101-0.201,0.208-0.283,0.434-0.245c1.015,0.176,2.033,0.335,3.048,0.517c0.2,0.037,0.294-0.005,0.403-0.178
						c0.305-0.479,0.638-0.94,0.959-1.408c-0.663-0.955-1.33-1.916-1.986-2.863c0.562-0.859,2.472-2.518,3.785-3.368
						c0.741,0.593,1.512,1.181,2.249,1.809c0.555,0.474,0.534,0.495,1.188,0.164c0.385-0.194,0.772-0.382,1.135-0.559
						c-0.091-1.091-0.175-2.163-0.273-3.232c-0.022-0.244,0.055-0.348,0.293-0.423c1.401-0.445,2.831-0.746,4.294-0.891
						c0.199-0.02,0.316,0.018,0.392,0.207c0.365,0.931,0.757,1.852,1.096,2.793c0.121,0.333,0.338,0.372,0.618,0.397
						c0.868,0.078,1.737,0.154,2.604,0.255c0.218,0.025,0.268-0.085,0.346-0.231c0.478-0.892,0.962-1.781,1.445-2.67
						c0.034-0.064,0.08-0.121,0.13-0.193c1.184,0.3,2.32,0.709,3.413,1.243c0.331,0.162,0.659,0.333,0.993,0.488
						c0.159,0.073,0.218,0.163,0.179,0.343c-0.216,1.009-0.413,2.023-0.639,3.029c-0.052,0.238-0.029,0.374,0.188,0.52
						c0.454,0.306,0.88,0.653,1.329,0.991c0.982-0.623,1.984-1.257,3.035-1.923c0.616,0.703,1.232,1.367,1.8,2.07
						c0.422,0.524,0.778,1.102,1.17,1.653c0.108,0.152,0.11,0.266-0.019,0.412c-0.689,0.785-1.364,1.581-2.058,2.36
						c-0.134,0.15-0.158,0.255-0.07,0.438c0.219,0.452,0.423,0.913,0.608,1.379c0.075,0.19,0.174,0.213,0.357,0.201
						c1.011-0.066,2.022-0.116,3.033-0.171c0.154-0.009,0.264,0.001,0.319,0.204c0.399,1.449,0.666,2.917,0.738,4.42
						c0.011,0.225-0.048,0.335-0.268,0.412c-0.965,0.333-1.919,0.694-2.884,1.024c-0.188,0.065-0.268,0.133-0.279,0.341
						c-0.034,0.577-0.099,1.152-0.15,1.724c0.948,0.464,1.891,0.935,2.841,1.385c0.253,0.12,0.324,0.244,0.257,0.532
						c-0.342,1.434-0.847,2.802-1.484,4.127c-0.09,0.184-0.197,0.246-0.392,0.213c-1.027-0.177-2.059-0.339-3.083-0.532
						c-0.195-0.036-0.278,0.007-0.378,0.158c-0.318,0.484-0.653,0.957-0.984,1.438c0.662,0.955,1.333,1.922,2.068,2.983
						c-0.52,0.483-1.01,0.976-1.538,1.424c-0.69,0.587-1.406,1.145-2.125,1.697c-0.072,0.056-0.271,0.039-0.351-0.023
						c-0.815-0.634-1.626-1.276-2.419-1.938c-0.187-0.154-0.326-0.18-0.532-0.071c-0.447,0.236-0.908,0.445-1.35,0.69
						c-0.08,0.045-0.14,0.213-0.13,0.317c0.086,0.998,0.183,1.996,0.291,2.991c0.022,0.204-0.026,0.3-0.227,0.371
						c-1.433,0.5-2.914,0.754-4.414,0.933c-0.183,0.022-0.267-0.051-0.329-0.207c-0.396-0.966-0.804-1.926-1.188-2.897
						c-0.073-0.185-0.146-0.248-0.349-0.265c-0.924-0.077-1.847-0.172-2.767-0.283c-0.208-0.025-0.295,0.034-0.385,0.209
						c-0.492,0.956-0.997,1.904-1.516,2.89c-0.256-0.067-0.477-0.118-0.694-0.183c-1.286-0.386-2.518-0.904-3.704-1.531
						c-0.216-0.114-0.278-0.239-0.229-0.471c0.216-0.999,0.416-2,0.634-2.998c0.041-0.186,0.03-0.292-0.145-0.412
						C438.893,114.047,438.44,113.684,437.986,113.339z M448.306,113.155c6.48,0.072,11.841-5.345,11.855-11.791
						c0.017-6.47-5.213-11.874-11.844-11.902c-6.454-0.027-11.818,5.316-11.843,11.783
						C436.452,107.796,441.751,113.155,448.306,113.155z"/>
				</g>
			</g>
		</g>
		<path d="M67.557,48.308c-12.128,0-23.164-3.096-31.43-8.159v125.865h60.121V41.695C88.352,45.832,78.393,48.308,67.557,48.308z"/>
	</g>
	<g>
		<path d="M915.425,56.504h-38.432c-2.994,0-4.986,0.217-5.979,0.653c-0.992,0.435-1.732,1.079-2.219,1.932
			c-0.488,0.853-0.731,2.41-0.731,4.673h-1.88V40.526h1.88c0,2.332,0.226,3.898,0.679,4.699c0.452,0.8,1.201,1.436,2.245,1.906
			c1.045,0.47,3.046,0.705,6.005,0.705h18.433c5.187,0,8.546-0.157,10.078-0.47c1.113-0.244,1.888-0.627,2.323-1.149
			s0.653-1.236,0.653-2.141c0-0.975-0.262-2.159-0.783-3.55l1.88-0.731l5.848,14.412V56.504z M940.437,52.17
			c0,1.462-0.514,2.707-1.54,3.733c-1.027,1.026-2.271,1.541-3.733,1.541s-2.716-0.514-3.76-1.541
			c-1.044-1.027-1.566-2.271-1.566-3.733s0.522-2.715,1.566-3.76c1.044-1.044,2.298-1.566,3.76-1.566s2.706,0.513,3.733,1.541
			C939.923,49.411,940.437,50.673,940.437,52.17z"/>
		<path d="M905.295,83.657c6.753,5.604,10.13,10.948,10.13,16.031c0,2.61-0.652,4.856-1.958,6.736s-3.455,3.376-6.448,4.491
			c-2.089,0.765-5.292,1.148-9.608,1.148h-20.417c-3.028,0-5.083,0.243-6.161,0.731c-0.871,0.383-1.55,1-2.036,1.854
			c-0.488,0.853-0.731,2.428-0.731,4.726h-1.88V95.719h1.88v0.992c0,2.228,0.339,3.786,1.019,4.673
			c0.679,0.888,1.679,1.505,3.002,1.854c0.522,0.139,2.158,0.209,4.908,0.209h19.582c4.351,0,7.51-0.566,9.477-1.697
			c1.967-1.132,2.95-3.038,2.95-5.718c0-4.143-2.263-8.269-6.788-12.375h-25.221c-3.237,0-5.239,0.191-6.005,0.574
			c-1.01,0.487-1.749,1.157-2.219,2.011c-0.47,0.853-0.705,2.584-0.705,5.195h-1.88V67.783h1.88v1.044
			c0,2.437,0.617,4.081,1.854,4.935c1.235,0.853,3.594,1.279,7.075,1.279h17.754c5.744,0,9.242-0.13,10.496-0.392
			c1.253-0.261,2.105-0.662,2.559-1.201c0.451-0.54,0.679-1.262,0.679-2.167c0-0.975-0.262-2.141-0.783-3.499l1.88-0.783
			l5.848,14.412v2.245H905.295z"/>
		<path d="M884.356,163.81c-6.302-1.288-11.148-3.812-14.543-7.571c-3.394-3.76-5.091-7.92-5.091-12.48
			c0-5.43,2.279-10.165,6.84-14.203c4.561-4.039,10.722-6.057,18.485-6.057c7.519,0,13.628,2.236,18.328,6.71
			c4.699,4.473,7.049,9.843,7.049,16.108c0,4.7-1.245,8.564-3.733,11.592c-2.489,3.029-5.074,4.543-7.754,4.543
			c-1.323,0-2.394-0.427-3.212-1.279c-0.818-0.854-1.227-2.045-1.227-3.577c0-2.054,0.661-3.603,1.984-4.647
			c0.73-0.592,2.123-0.984,4.177-1.175c2.054-0.192,3.62-0.897,4.7-2.115c1.044-1.219,1.566-2.907,1.566-5.065
			c0-3.481-1.288-6.284-3.864-8.407c-3.412-2.82-7.92-4.229-13.524-4.229c-5.709,0-10.748,1.401-15.116,4.204
			c-4.369,2.802-6.554,6.587-6.554,11.357c0,3.411,1.166,6.475,3.499,9.19c1.601,1.914,4.508,3.777,8.72,5.587L884.356,163.81z"/>
	</g>
</g>
</svg>
